<?xml version="1.0" encoding="UTF-8" standalone="no"?>
<svg
   width="32"
   height="32"
   viewBox="0 0 24 24"
   version="1.1"
   id="svg1"
   sodipodi:docname="gravity.svg"
   inkscape:version="1.4.4 (dcaf3e7d9e, 2026-05-05)"
   xmlns:inkscape="http://www.inkscape.org/namespaces/inkscape"
   xmlns:sodipodi="http://sodipodi.sourceforge.net/DTD/sodipodi-0.dtd"
   xmlns="http://www.w3.org/2000/svg"
   xmlns:svg="http://www.w3.org/2000/svg">
  <sodipodi:namedview
     id="namedview1"
     pagecolor="#ffffff"
     bordercolor="#000000"
     borderopacity="0.25"
     inkscape:showpageshadow="2"
     inkscape:pageopacity="0.0"
     inkscape:pagecheckerboard="0"
     inkscape:deskcolor="#d1d1d1"
     inkscape:zoom="23.234375"
     inkscape:cx="17.861466"
     inkscape:cy="22.488231"
     inkscape:window-width="1582"
     inkscape:window-height="1302"
     inkscape:window-x="0"
     inkscape:window-y="0"
     inkscape:window-maximized="0"
     inkscape:current-layer="svg1" />
  <defs
     id="defs1" />
  <!-- Icon from Material Symbols by Google - https://github.com/google/material-design-icons/blob/master/LICENSE -->
  <!-- Modified it a little bit, there's no "space gravity" icon available. -->
  <path
     fill="currentColor"
     d="m 15.76786,18.274928 -1.391472,0.295932 -0.674684,-2.9751 -3.051267,-0.735557 -2.4062791,-3.292082 -0.8846145,1.824345 1.561484,2.213127 -1.1706157,0.808349 -1.9932655,-2.862487 1.752944,-3.7745856 Q 7.740355,9.2978686 8.2693798,9.1366908 8.7984057,8.9755132 9.3446883,8.9671549 9.9537305,8.9704882 10.547911,8.8283107 11.142091,8.6861403 11.667399,8.364791 12.192707,8.0434408 12.541821,7.5511898 12.890935,7.0589389 13.170167,6.5208564 l 1.228561,0.6477209 q -0.321651,0.575352 -0.696034,1.1164692 -0.374382,0.5411172 -0.890945,0.9726251 -0.466314,0.3718768 -0.998843,0.6112737 -0.532529,0.2393967 -1.117089,0.3386867 L 12,12 l 2.176682,-1.469824 4.352172,0.934365 -0.326914,1.35612 -3.582453,-0.734464 -2.11263,1.442217 2.281549,0.535655 z M 7.5517982,8.9044443 Q 7.0233673,9.1322023 6.4853273,8.9182692 5.9472884,8.7043353 5.7186139,8.1755407 5.4899403,7.6467461 5.7054294,7.108795 5.9209195,6.5708439 6.4475175,6.3423563 6.9741154,6.1138698 7.5149037,6.3288971 8.0556931,6.5439235 8.2807018,7.07126 8.5057095,7.5985974 8.2948017,8.1383704 8.0838948,8.6781445 7.5517982,8.9044443"
     id="path1"
     style="stroke-width:0.697484" />
  <path
     id="path2"
     style="fill:none;stroke:currentColor;stroke-width:2.43525;stroke-linecap:round;stroke-linejoin:round;stroke-dasharray:0, 7.30575"
     d="M 22.480952,12 C 22.480952,17.78847 17.78847,22.480952 12,22.480952 6.2115299,22.480952 1.5190477,17.78847 1.5190477,12 1.5190475,6.2115298 6.2115298,1.5190477 12,1.5190477 c 0.653263,0 1.292568,0.059766 1.912744,0.1741274 C 18.787854,2.5921561 22.480952,6.8647934 22.480952,12 Z"
     sodipodi:nodetypes="ssssss" />
</svg>
